<svg width="22" height="22" viewBox="0 0 22 22" fill="none" xmlns="http://www.w3.org/2000/svg">
<path d="M5.58263 3.30243C5.69384 3.19238 5.78104 3.06049 5.83874 2.91506C5.89643 2.76963 5.92337 2.61382 5.91785 2.45746C5.91234 2.3011 5.87448 2.14758 5.80668 2.00658C5.73888 1.86558 5.6426 1.74016 5.52391 1.63822C4.92662 1.12847 4.16778 0.847274 3.38254 0.844727L3.20956 0.849487H3.18417C1.39352 0.95846 -0.00302423 2.5137 0.000678733 4.38899C0.000678733 5.39408 0.423874 5.92625 0.758199 6.35209C0.852013 6.47114 0.969621 6.56932 1.10351 6.64037C1.23741 6.71141 1.38464 6.75376 1.53582 6.7647C1.54957 6.7647 1.57285 6.76735 1.64162 6.76735C1.77761 6.76715 1.91215 6.73944 2.03715 6.6859C2.16215 6.63235 2.27502 6.55407 2.36899 6.45577L5.58263 3.30243ZM18.8181 0.850546L18.6451 0.845256H18.6176C17.8316 0.847302 17.0719 1.12852 16.4741 1.63875C16.3556 1.74068 16.2594 1.86604 16.1917 2.00695C16.124 2.14785 16.0862 2.30125 16.0807 2.45747C16.0752 2.6137 16.1021 2.76938 16.1597 2.91471C16.2173 3.06004 16.3043 3.19187 16.4154 3.30191L19.6301 6.45736C19.7242 6.55601 19.8374 6.63454 19.9628 6.68818C20.0882 6.74183 20.2232 6.76948 20.3596 6.76946C20.4273 6.76946 20.4505 6.76946 20.4654 6.76682C20.6164 6.7558 20.7636 6.71342 20.8974 6.64238C21.0312 6.57134 21.1487 6.47319 21.2425 6.3542C21.5789 5.92836 21.9979 5.39778 22 4.3911C22.0031 2.5137 20.6066 0.95846 18.8181 0.850546V0.850546Z" fill="#141414"/>
<path d="M11.0038 2.53754C5.87256 2.53754 1.69351 6.71395 1.69351 11.8478C1.69169 14.0245 2.45594 16.1324 3.85233 17.8022L1.94161 19.7135C1.86114 19.7916 1.79702 19.885 1.75298 19.9882C1.70894 20.0914 1.68584 20.2023 1.68505 20.3145C1.68425 20.4267 1.70577 20.5379 1.74835 20.6417C1.79093 20.7455 1.85371 20.8398 1.93306 20.9191C2.01241 20.9984 2.10674 21.0612 2.21055 21.1037C2.31437 21.1462 2.4256 21.1677 2.53779 21.1669C2.64998 21.166 2.76088 21.1429 2.86404 21.0988C2.96721 21.0547 3.06058 20.9905 3.13872 20.91L5.04945 18.9993C6.72011 20.3941 8.82742 21.1582 11.0038 21.1582C13.1802 21.1582 15.2875 20.3941 16.9582 18.9993L18.8694 20.91C18.9476 20.9905 19.0409 21.0547 19.1441 21.0988C19.2473 21.1429 19.3582 21.166 19.4703 21.1669C19.5825 21.1677 19.6938 21.1462 19.7976 21.1037C19.9014 21.0612 19.9957 20.9984 20.0751 20.9191C20.1544 20.8398 20.2172 20.7455 20.2598 20.6417C20.3024 20.5379 20.3239 20.4267 20.3231 20.3145C20.3223 20.2023 20.2992 20.0914 20.2552 19.9882C20.2111 19.885 20.147 19.7916 20.0665 19.7135L18.1553 17.8022C19.5519 16.1326 20.3162 14.0246 20.3141 11.8478C20.3141 6.71659 16.1377 2.53754 11.0038 2.53754ZM11.8502 11.8478C11.8502 12.0723 11.761 12.2876 11.6023 12.4463C11.4436 12.6051 11.2283 12.6942 11.0038 12.6942H6.77185C6.54738 12.6942 6.33209 12.6051 6.17336 12.4463C6.01463 12.2876 5.92546 12.0723 5.92546 11.8478C5.92546 11.6234 6.01463 11.4081 6.17336 11.2493C6.33209 11.0906 6.54738 11.0014 6.77185 11.0014H10.1574V5.9231C10.1574 5.69862 10.2466 5.48334 10.4053 5.32461C10.564 5.16588 10.7793 5.07671 11.0038 5.07671C11.2283 5.07671 11.4436 5.16588 11.6023 5.32461C11.761 5.48334 11.8502 5.69862 11.8502 5.9231V11.8478Z" fill="#141414"/>
</svg>
